<svg width="100" height="40" viewBox="0 0 100 40" fill="none" xmlns="http://www.w3.org/2000/svg">
<path d="M25.1805 5.55181V13.4033L31.4058 19.6286L22.4045 28.6299L22.4046 2.7759L19.6287 0L0 19.6287L14.0768 33.7055V25.854L7.85145 19.6286L16.8527 10.6274L16.8527 36.4814L19.6286 39.2573L39.2573 19.6286L25.1805 5.55181Z" fill="url(#paint0_linear_1121_210)"/>
<path fill-rule="evenodd" clip-rule="evenodd" d="M83.9935 8.70548V7.35172H90.0416V31.9074H83.9935V30.5983C82.3236 31.7059 80.2862 32.2872 78.0484 32.2872C70.8594 32.2872 65.4385 26.8452 65.4385 19.6293C65.4385 12.4134 70.8594 6.97192 78.0484 6.97192C80.2571 6.97192 82.295 7.56882 83.9935 8.70548ZM71.6282 19.6293C71.6282 23.5968 74.3481 26.4767 78.0958 26.4767C80.4963 26.4767 82.7438 25.353 83.9935 23.537V15.7215C82.7438 13.9056 80.4963 12.7824 78.0958 12.7824C74.3481 12.7824 71.6282 15.6617 71.6282 19.6293Z" fill="white"/>
<path d="M67.4733 31.9071L63.7669 26.4292H53.5132L66.4212 7.35156H43.2006L46.9071 12.8295H55.8455L42.9375 31.9071H67.4733Z" fill="white"/>
<path d="M93.9521 0L99.9996 6.04716V2.5244e-05L93.9521 0Z" fill="white"/>
<path d="M92.167 7.35161L93.9524 9.99017V31.9073H99.9998V7.35156L92.167 7.35161Z" fill="white"/>
<defs>
<linearGradient id="paint0_linear_1121_210" x1="39.2573" y1="39.2573" x2="39.2573" y2="0" gradientUnits="userSpaceOnUse">
<stop stop-color="#6738BD"/>
<stop offset="1" stop-color="#EE3932"/>
</linearGradient>
</defs>
</svg>
